<svg class="icon" viewBox="0 0 1024 1024" xmlns="http://www.w3.org/2000/svg" width="200" height="200"><defs><style/></defs><path d="M677.47 294.57a351.725 351.725 0 0090.33 147.085c38.37-38.37 63.95-89.53 83.135-147.085H677.471zM256.2 614.32h166.27l-83.135-223.825L256.2 614.32z"/><path d="M895.7.4H128.3A127.9 127.9 0 00.4 128.3v767.4a127.9 127.9 0 00127.9 127.9h767.4a127.9 127.9 0 00127.1-127.9V128.3C1022.8 57.955 971.64.4 894.9.4zM581.546 825.355c-12.79 12.79-25.58 12.79-38.37 12.79-6.395 0-19.185 0-25.58-6.395s-12.79 0-12.79-6.395-6.395-12.79-12.79-25.58-6.395-19.185-12.79-31.975l-25.58-70.345H229.82L205.04 767.8c-12.79 25.58-19.185 44.765-25.58 57.555s-19.185 12.79-38.37 12.79c-12.79 0-25.58-6.395-38.37-12.79-12.79-12.79-19.185-19.185-19.185-31.975 0-6.395 0-12.79 6.395-25.58s6.395-19.185 12.79-31.975l140.69-358.12c6.395-12.79 6.395-25.58 12.79-38.37s12.79-25.58 19.185-31.975c6.395-6.395 12.79-19.185 25.58-25.58s25.58-6.395 38.37-6.395 25.58 0 38.37 6.395 19.185 12.79 25.58 25.58a311.756 311.756 0 0138.37 76.74l140.69 351.725c12.79 25.58 19.185 44.765 19.185 57.555-6.395 6.395-12.79 19.185-19.185 31.975zM933.27 575.95a516.396 516.396 0 01-167.07-95.925 379.703 379.703 0 01-171.865 95.925l-18.386-31.975c69.546-19.185 127.9-44.765 171.866-89.53a336.537 336.537 0 01-95.925-166.27h-63.95v-25.58h172.665c-12.79-19.185-25.58-44.765-38.37-63.95l19.185-6.395c12.79 19.185 31.975 44.765 44.765 70.345H946.06v31.975h-63.95c-19.185 63.95-51.16 121.505-89.53 159.875 44.765 38.37 95.925 70.345 166.27 89.53l-25.58 31.975z"/></svg>